<?xml version="1.0" standalone="no"?>
<!DOCTYPE svg PUBLIC "-//W3C//DTD SVG 20010904//EN"
 "http://www.w3.org/TR/2001/REC-SVG-20010904/DTD/svg10.dtd">
<svg version="1.0" xmlns="http://www.w3.org/2000/svg"
 width="1500.000000pt" height="1500.000000pt" viewBox="0 0 1500.000000 1500.000000"
 preserveAspectRatio="xMidYMid meet">
<metadata>
Created by potrace 1.14, written by Peter Selinger 2001-2017
</metadata>
<g transform="translate(0.000000,1500.000000) scale(0.100000,-0.100000)"
fill="#000000" stroke="none">
<path d="M0 7544 c0 -7090 1 -7453 17 -7456 10 -2 30 -1 45 3 17 5 29 3 32 -4
3 -7 5 -6 5 3 1 13 2 13 11 0 8 -12 10 -12 11 5 l0 20 9 -20 c5 -11 9 -15 9
-10 1 7 136 12 136 5 0 -1 21 -2 48 -3 26 -2 47 0 47 3 0 3 9 6 20 6 11 0 20
-4 20 -8 0 -4 5 -8 11 -8 5 0 7 5 3 12 -5 7 -3 8 6 3 17 -10 160 -12 160 -2 0
5 5 5 12 1 18 -11 132 -10 140 1 5 6 8 5 8 -2 0 -7 5 -13 11 -13 5 0 8 3 6 8
-6 8 45 8 59 -1 6 -3 16 -2 24 3 9 5 19 5 27 -2 9 -7 13 -7 13 1 0 6 5 11 11
11 5 0 8 -4 5 -9 -3 -5 5 -8 19 -8 14 0 23 3 20 7 -3 6 30 6 45 0 3 -1 20 -2
38 -2 21 0 30 -4 26 -11 -3 -7 2 -3 10 7 9 11 16 15 16 10 0 -5 9 -10 20 -11
13 -1 18 2 14 9 -5 7 -2 8 6 3 20 -12 91 -15 83 -2 -4 6 -1 7 7 2 20 -13 170
-13 170 0 0 5 5 3 10 -5 5 -8 10 -10 10 -5 0 6 5 3 10 -5 6 -9 10 -11 10 -3 0
7 7 10 17 6 12 -5 14 -3 9 8 -4 8 0 5 8 -5 9 -11 16 -15 16 -10 0 5 9 10 20
11 11 1 20 -3 20 -10 0 -6 7 -2 15 9 15 18 15 18 8 0 -5 -15 -3 -17 8 -10 20
12 49 16 49 6 0 -5 7 -9 15 -9 8 0 12 4 9 8 -6 10 38 5 55 -6 10 -5 12 -4 7 3
-4 7 -3 12 3 12 5 0 13 -5 16 -10 5 -8 11 -7 21 1 11 9 14 8 14 -2 0 -12 2
-12 9 -1 4 8 12 14 16 14 4 0 12 -6 16 -14 5 -7 9 -8 9 -2 0 6 10 10 23 8 12
-1 22 -3 22 -4 0 -7 47 -5 52 3 3 5 9 3 14 -4 5 -8 9 -9 9 -3 0 12 29 12 49
-1 9 -5 12 -4 7 3 -4 7 1 10 14 9 11 -1 20 -5 20 -10 0 -5 8 -3 17 4 15 12 16
12 8 -1 -8 -13 -7 -13 9 -1 15 13 19 13 27 0 7 -12 9 -12 9 1 0 12 2 13 9 1 7
-11 9 -11 14 0 5 12 6 12 6 0 1 -11 4 -11 18 0 11 10 14 10 9 1 -4 -6 -2 -12
3 -12 6 0 11 6 11 13 0 8 4 7 10 -3 6 -10 10 -11 10 -2 0 6 5 12 11 12 5 0 7
-6 3 -12 -5 -9 -2 -9 9 1 11 9 17 10 17 2 0 -13 22 -10 32 4 5 6 8 5 8 -3 0
-9 5 -10 18 -3 11 6 24 6 32 1 9 -6 17 -5 22 3 6 9 8 9 8 0 0 -7 5 -13 11 -13
5 0 8 4 4 9 -5 9 40 5 55 -4 3 -2 12 0 20 5 9 5 19 5 27 -2 10 -8 13 -7 13 3
0 11 2 11 9 0 8 -12 12 -12 25 -2 12 10 16 10 16 2 0 -7 5 -9 13 -4 16 10 38
13 32 4 -2 -4 9 -8 25 -8 16 0 27 5 23 10 -3 5 4 4 16 -2 16 -9 21 -9 21 1 0
8 3 9 8 3 9 -14 55 -17 47 -4 -4 5 -2 9 4 9 5 0 12 -6 14 -12 4 -10 8 -10 15
1 8 11 10 11 15 0 4 -12 7 -11 16 1 8 12 11 12 11 1 0 -11 3 -11 17 0 11 10
14 10 9 1 -4 -6 -3 -12 1 -12 5 0 15 6 22 12 9 9 12 9 7 1 -7 -13 41 -12 63 1
10 6 12 5 7 -2 -4 -7 -3 -12 3 -12 5 0 12 6 14 13 4 9 6 9 6 0 1 -7 8 -13 16
-13 8 0 15 6 15 13 0 9 2 9 8 0 4 -6 22 -11 39 -11 18 1 30 5 26 11 -3 5 7 1
23 -9 27 -19 28 -19 21 0 -6 14 -4 16 5 9 18 -14 161 -14 170 0 5 8 8 4 8 -8
0 -17 2 -17 10 -5 9 13 10 13 10 0 1 -12 3 -11 11 3 8 14 14 16 24 7 8 -7 20
-10 27 -7 7 2 21 0 32 -5 13 -7 16 -7 12 1 -4 6 0 11 9 11 9 0 14 -4 11 -9 -6
-9 29 -7 64 4 12 4 20 3 17 -1 -3 -5 26 -9 64 -9 57 0 68 3 64 15 -3 9 1 7 10
-4 8 -11 15 -16 15 -10 0 5 18 9 40 9 22 0 40 -4 40 -10 0 -5 5 -3 10 5 5 8
10 10 10 5 0 -13 63 -13 72 0 5 6 8 6 8 -2 0 -8 9 -9 29 -3 15 4 34 4 42 0 17
-11 31 -2 22 13 -3 7 4 3 16 -8 19 -17 25 -17 44 -6 15 10 22 10 25 2 2 -6 8
-11 13 -11 6 0 7 6 3 13 -6 9 -4 9 8 -1 12 -10 18 -10 23 -1 6 8 9 8 15 -1 6
-10 15 -10 39 -2 20 7 33 7 37 1 4 -6 10 -6 19 1 10 8 15 8 20 0 5 -8 11 -8
19 -1 7 6 16 8 19 4 10 -9 58 -13 53 -4 -3 3 4 7 14 7 10 0 17 -3 14 -7 -2 -4
3 -10 12 -13 8 -3 12 -2 9 4 -8 14 28 13 42 -1 8 -8 13 -7 18 2 6 8 4 10 -6 4
-8 -5 -11 -4 -6 0 9 11 57 13 51 3 -3 -4 0 -8 5 -8 6 0 11 6 11 13 0 9 2 9 8
-1 9 -13 70 -11 93 4 7 4 9 3 5 -4 -11 -18 18 -20 38 -3 11 9 16 11 13 5 -5
-9 13 -11 63 -9 44 1 70 -2 70 -8 0 -6 6 -3 13 8 11 14 16 15 22 5 6 -9 4 -11
-5 -5 -9 5 -11 4 -6 -4 4 -6 13 -8 19 -4 16 10 99 11 120 1 11 -6 17 -5 17 3
0 6 7 9 15 5 8 -3 15 0 16 7 0 7 4 3 9 -8 6 -13 9 -15 9 -5 1 13 2 13 11 0 5
-8 10 -10 10 -5 0 6 11 11 25 11 14 1 22 -2 19 -8 -4 -6 2 -5 14 1 11 6 23 11
27 11 3 0 3 -5 -1 -11 -5 -8 -1 -8 13 0 14 7 24 7 33 -2 10 -9 11 -9 6 0 -4 7
-2 13 3 13 6 0 11 -5 11 -11 0 -8 4 -8 13 -1 8 7 18 7 27 2 8 -5 19 -6 24 -2
6 3 23 5 39 4 20 -2 27 1 22 10 -4 7 0 5 8 -5 10 -12 17 -14 22 -7 3 5 11 7
18 3 18 -11 97 -10 97 1 0 6 4 5 9 -3 6 -9 11 -10 15 -2 5 8 13 8 26 1 13 -7
21 -7 26 1 4 8 9 7 15 -2 7 -11 9 -11 9 1 0 13 1 13 10 0 9 -13 11 -13 21 0 8
11 12 12 16 3 2 -7 9 -13 14 -13 6 0 7 6 3 13 -6 9 -4 9 8 -1 13 -10 17 -10
21 0 4 10 7 10 15 -1 8 -11 10 -11 15 0 5 12 6 12 6 0 1 -11 4 -11 16 -1 11 9
15 9 15 1 0 -8 5 -9 18 -2 11 6 24 6 33 0 18 -11 32 -12 25 -1 -3 5 1 9 9 9 8
0 12 -5 8 -10 -3 -5 4 -4 16 2 14 8 21 8 21 1 0 -5 5 -10 11 -10 5 0 7 6 3 13
-6 9 -4 9 8 -1 12 -10 18 -10 23 -1 6 8 9 8 15 0 5 -8 14 -9 33 -2 17 7 27 7
27 1 0 -6 7 -10 16 -10 8 0 12 5 8 11 -5 8 -1 8 13 0 11 -6 23 -8 25 -5 9 9
49 13 43 5 -6 -11 56 -8 74 3 9 6 12 5 8 0 -3 -6 11 -10 33 -10 21 0 37 3 35
6 -2 4 2 7 10 7 8 0 12 -4 9 -9 -3 -4 2 -8 11 -8 10 0 13 5 9 12 -5 7 -3 8 7
2 19 -12 62 -17 55 -6 -3 5 1 9 9 9 8 0 11 -5 8 -10 -4 -6 0 -8 9 -4 9 3 21 0
28 -6 10 -9 11 -9 5 2 -6 10 -4 13 7 8 9 -3 21 0 28 6 10 9 11 9 6 0 -6 -11
28 -12 69 -3 23 5 36 -1 29 -12 -6 -10 -5 -10 7 -1 12 10 18 10 29 0 10 -10
12 -9 7 4 -3 9 0 16 9 16 7 0 11 -4 8 -9 -3 -5 15 -7 41 -5 25 2 49 -1 52 -6
3 -5 9 -3 14 4 8 12 10 12 18 0 7 -11 11 -10 20 5 10 18 10 18 11 -1 0 -17 2
-17 10 -5 8 13 11 13 19 1 7 -11 11 -10 20 5 6 11 11 14 11 7 0 -9 26 -12 95
-10 58 1 95 -2 96 -8 0 -5 4 -1 9 10 7 17 9 17 9 3 1 -10 6 -18 12 -18 5 0 7
6 3 13 -6 9 -4 9 8 -1 10 -8 19 -9 22 -4 3 6 20 7 41 2 22 -5 35 -4 35 2 0 7
5 6 14 -1 11 -9 15 -8 20 6 6 15 8 15 22 1 12 -12 25 -14 50 -8 19 5 34 4 34
-1 0 -5 5 -9 11 -9 5 0 8 4 5 8 -3 4 10 7 27 5 77 -8 95 -8 90 0 -3 5 3 5 13
-1 23 -11 47 -5 37 11 -4 7 0 6 10 -1 21 -17 67 -23 67 -8 0 6 5 4 10 -4 7
-11 10 -11 10 -2 0 10 5 10 21 1 16 -8 20 -8 14 1 -6 9 -3 9 13 1 26 -14 35
-14 26 0 -5 8 -2 9 12 1 10 -6 27 -7 40 -2 12 5 25 6 28 2 10 -9 46 -10 46 0
0 5 6 6 13 1 18 -11 49 -14 42 -4 -3 6 6 7 23 2 16 -5 36 -5 45 0 10 6 18 5
22 -1 3 -5 11 -10 16 -10 6 0 7 5 4 10 -3 6 -1 10 4 10 6 0 11 -7 11 -16 0
-14 3 -14 15 -4 9 7 18 10 22 7 3 -4 12 -2 19 4 8 7 14 7 19 -1 3 -5 11 -10
16 -10 6 0 7 5 3 11 -5 8 -1 8 14 0 27 -14 35 -14 25 2 -4 6 5 4 19 -5 16 -10
29 -14 33 -8 3 5 13 6 22 3 12 -5 14 -3 8 7 -6 9 -4 11 5 5 7 -4 27 -8 44 -9
17 -1 36 -5 43 -9 6 -4 18 -1 26 8 13 13 16 13 21 -1 5 -12 10 -13 19 -6 8 7
18 7 27 2 9 -5 19 -5 26 1 8 7 14 7 18 0 4 -6 13 -8 21 -5 8 4 13 9 11 13 -3
4 4 7 14 7 12 0 16 -5 12 -16 -4 -11 1 -10 18 5 13 11 20 15 17 9 -4 -7 0 -14
8 -18 8 -3 15 0 15 6 0 7 4 7 13 0 7 -5 21 -6 32 -1 29 11 37 11 29 -3 -4 -7
3 -4 15 6 22 20 22 20 15 0 -7 -17 -6 -18 11 -4 21 17 24 17 36 -2 7 -11 9
-11 9 1 0 11 3 11 17 0 15 -12 16 -12 10 5 -6 16 -5 17 8 6 12 -10 15 -10 15
1 0 8 5 6 13 -6 10 -12 16 -15 21 -6 5 8 13 8 28 0 15 -8 19 -8 14 0 -4 6 -2
11 3 11 6 0 11 -6 11 -12 0 -8 3 -9 8 -3 10 14 32 17 32 4 0 -8 4 -8 14 0 11
9 15 9 19 -1 4 -10 6 -10 6 1 1 11 4 11 17 0 13 -10 17 -10 25 2 7 12 9 12 9
-1 0 -12 2 -12 9 -2 4 8 12 14 16 14 4 0 12 -6 16 -14 6 -8 9 -9 9 -1 0 12 17
12 38 0 7 -5 12 -3 12 5 0 9 3 9 10 -2 9 -13 10 -13 10 0 0 12 2 12 9 1 6 -9
10 -10 16 -2 5 9 10 9 21 0 11 -9 14 -8 14 2 0 12 2 12 9 0 7 -11 9 -11 14 0
4 10 6 10 6 2 1 -7 6 -13 12 -13 5 0 7 6 3 13 -5 8 -2 8 9 -2 14 -11 17 -11
17 0 0 12 2 12 9 0 7 -11 9 -11 14 0 4 11 6 11 6 1 1 -7 5 -11 9 -8 18 11 62
14 68 4 4 -6 10 -5 15 3 7 11 9 11 9 -1 0 -13 1 -13 10 0 8 12 10 12 10 1 0
-10 3 -11 14 -2 10 8 16 9 21 1 3 -6 12 -7 18 -3 18 11 36 12 43 2 3 -5 11 -6
17 -2 17 11 38 13 32 3 -2 -4 6 -8 20 -7 16 0 22 4 18 11 -5 7 -2 7 8 -1 9 -7
20 -9 29 -3 9 5 20 5 28 -2 10 -9 16 -8 23 3 5 8 9 9 9 3 0 -14 31 -14 49 0
11 8 13 8 7 -1 -9 -17 6 -17 23 0 10 8 12 8 7 0 -4 -8 1 -11 14 -10 11 1 20 6
20 12 0 5 5 3 10 -5 8 -12 13 -13 29 -3 21 13 55 7 45 -8 -3 -5 5 -6 18 -1 13
4 38 7 56 6 17 -1 30 2 27 7 -4 5 1 6 9 3 9 -3 13 -11 10 -18 -3 -6 2 -2 10 8
16 20 16 20 16 0 0 -16 2 -17 10 -4 5 8 10 11 10 5 0 -5 5 -4 11 2 9 9 18 7
37 -5 15 -9 23 -12 19 -6 -4 7 0 15 9 18 9 3 12 2 8 -5 -4 -7 4 -10 22 -8 16
2 34 0 40 -3 6 -4 23 -1 38 7 14 8 24 10 21 5 -4 -6 -1 -10 4 -10 6 0 11 -7
11 -15 0 -13 84 -15 699 -15 611 0 700 2 711 15 10 12 16 13 28 3 12 -10 14
-10 8 -1 -9 16 45 14 56 -2 5 -6 8 -6 8 3 0 6 5 12 11 12 5 0 8 -4 5 -8 -6
-10 50 -8 77 3 11 5 17 2 17 -6 0 -9 3 -10 8 -4 11 15 46 19 36 4 -5 -9 -2
-10 12 -5 32 13 66 17 60 8 -6 -10 30 -9 40 1 4 3 14 3 23 -2 23 -11 40 -8 51
9 8 13 10 12 10 -4 0 -18 1 -18 48 1 6 3 12 0 12 -7 0 -9 4 -9 17 1 13 11 17
11 21 1 3 -10 7 -10 20 0 13 11 14 11 7 -2 -7 -12 -6 -13 6 -3 12 9 18 10 27
1 8 -8 15 -8 27 2 12 10 15 10 15 -1 0 -11 2 -11 10 1 9 13 10 13 10 0 0 -13
1 -13 10 0 9 13 10 13 10 0 0 -12 2 -13 9 -1 7 11 9 11 13 0 4 -12 7 -12 21 0
14 11 17 11 17 0 0 -11 2 -11 10 1 8 13 10 13 10 0 0 -11 3 -11 12 -2 7 7 17
12 22 12 6 0 4 -5 -4 -10 -9 -6 -10 -10 -3 -10 6 0 15 5 19 11 4 8 9 7 15 -2
8 -12 11 -12 18 0 7 11 13 12 23 3 11 -9 17 -9 26 0 9 9 12 9 12 0 0 -7 7 -12
16 -12 8 0 12 5 8 11 -5 8 -1 8 14 0 15 -8 23 -8 28 0 5 8 8 8 14 0 5 -8 14
-9 33 -2 17 7 27 7 27 1 0 -6 5 -10 11 -10 5 0 7 6 3 13 -6 9 -4 9 7 0 16 -16
53 -17 43 -2 -5 8 -1 8 13 0 14 -7 24 -7 33 2 10 9 11 9 6 0 -9 -17 6 -17 23
-1 11 10 13 10 7 1 -9 -16 -5 -16 29 -3 17 7 24 7 20 0 -3 -6 1 -10 10 -10 10
0 14 5 9 13 -6 10 -4 10 7 0 7 -7 17 -13 22 -13 4 0 5 6 1 13 -6 9 -5 9 7 0
12 -10 18 -10 29 0 10 9 11 9 6 0 -9 -17 6 -17 23 -1 11 11 13 10 7 0 -8 -14
19 -12 43 2 10 7 12 5 6 -4 -5 -8 -3 -11 6 -8 8 3 25 1 38 -4 21 -8 22 -7 11
7 -11 13 -10 14 6 9 10 -4 25 -12 33 -18 11 -8 13 -8 8 0 -4 7 0 15 9 18 8 3
13 2 10 -3 -3 -5 1 -11 9 -15 8 -3 17 0 21 6 5 7 2 8 -6 3 -9 -6 -11 -4 -5 5
6 10 10 10 19 -2 10 -13 13 -13 24 -1 11 11 17 11 28 2 7 -6 21 -9 29 -5 8 3
15 1 15 -5 0 -6 5 -7 10 -4 6 4 8 10 6 14 -3 4 1 8 9 8 8 0 12 -4 9 -9 -7 -11
39 -10 71 2 18 7 24 7 19 -1 -4 -6 1 -9 12 -8 11 2 25 0 32 -4 7 -5 12 -4 12
2 0 6 7 11 16 11 8 0 12 -5 8 -11 -4 -8 0 -8 15 0 16 9 21 9 21 -1 1 -8 7 -5
15 6 8 11 15 14 15 8 0 -7 9 -12 21 -12 13 0 18 4 14 13 -4 6 1 3 9 -7 9 -11
16 -15 16 -9 0 12 18 12 37 0 6 -4 13 -1 16 5 3 10 7 10 19 0 13 -10 17 -10
21 0 4 10 8 10 16 -2 9 -13 11 -12 12 5 0 15 2 16 7 5 4 -8 13 -16 20 -18 8
-1 11 2 7 8 -8 13 1 13 26 0 14 -8 19 -7 19 2 0 9 3 9 10 -2 9 -13 10 -13 10
0 0 13 1 13 10 0 6 -10 10 -11 10 -2 0 16 27 16 33 0 4 -10 6 -10 6 0 1 10 6
10 21 2 16 -9 20 -8 21 7 0 16 1 16 9 -2 6 -13 9 -15 9 -5 1 13 2 13 11 0 5
-8 10 -11 10 -5 0 6 11 10 24 10 13 0 22 -3 20 -6 -2 -4 7 -6 21 -5 14 0 25 6
25 11 0 6 5 3 10 -5 5 -8 10 -10 10 -5 0 6 9 11 19 11 11 0 17 -4 15 -8 -3 -4
0 -8 5 -8 6 0 11 5 11 11 0 8 5 8 15 -1 8 -7 15 -8 15 -3 0 11 42 9 59 -2 6
-3 11 -1 11 5 0 6 5 8 11 4 19 -11 109 -12 102 0 -3 6 0 6 7 -1 9 -8 19 -9 32
-2 12 6 18 6 18 -1 0 -5 5 -10 11 -10 5 0 7 6 3 13 -5 8 -2 8 9 -2 13 -10 17
-10 17 -1 0 10 3 10 15 0 12 -10 15 -10 15 0 0 10 3 10 14 1 10 -8 16 -9 21
-1 3 6 11 8 16 4 18 -11 59 -11 59 -1 0 7 4 7 12 -1 14 -14 32 -16 24 -4 -3 5
1 9 9 9 8 0 12 -4 9 -9 -8 -13 10 -10 25 5 11 10 13 10 7 0 -4 -7 -2 -13 3
-13 6 0 11 5 11 10 0 6 5 10 11 10 5 0 8 -4 5 -9 -3 -5 5 -8 19 -8 14 0 23 3
20 7 -5 8 27 6 42 -3 6 -4 14 -3 18 3 4 6 11 7 18 3 19 -11 111 -11 119 1 5 8
8 7 8 -1 0 -7 7 -13 16 -13 8 0 13 4 9 9 -3 6 6 7 22 3 16 -4 48 -7 73 -7 l45
0 0 7495 0 7495 -7497 1 -7498 1 0 -7453z"/>
</g>
</svg>
